<svg width="15" height="12" viewBox="0 0 15 12" fill="none" xmlns="http://www.w3.org/2000/svg">
<path d="M5.625 0.75L6.88789 4.63678H10.9747L7.6684 7.03894L8.93129 10.9257L5.625 8.52356L2.31871 10.9257L3.5816 7.03894L0.275307 4.63678H4.36211L5.625 0.75Z" fill="#288BFF"/>
<path d="M9.375 0.75L10.3011 3.6003H13.2981L10.8735 5.36189L11.7996 8.2122L9.375 6.45061L6.95039 8.2122L7.87651 5.36189L5.45189 3.6003H8.44888L9.375 0.75Z" fill="#5AA6FF"/>
<path d="M12.375 0L12.9643 1.81383H14.8715L13.3286 2.93484L13.9179 4.74867L12.375 3.62766L10.8321 4.74867L11.4214 2.93484L9.87848 1.81383H11.7857L12.375 0Z" fill="#8DC2FF"/>
</svg>
