<svg width="9" height="99" viewBox="0 0 9 99" fill="none" xmlns="http://www.w3.org/2000/svg">
<path d="M0 27.5003L9 21.8711V33.1294L0 27.5003Z" fill="#288BFF"/>
<path d="M0 49.5003L9 43.8711V55.1294L0 49.5003Z" fill="#288BFF"/>
<path d="M0 71.5003L9 65.8711V77.1294L0 71.5003Z" fill="#288BFF"/>
<path d="M0 93.5003L9 87.8711V99.1294L0 93.5003Z" fill="#288BFF"/>
<path d="M0 16.5003L9 10.8711V22.1294L0 16.5003Z" fill="#288BFF"/>
<path d="M0 5.50026L9 -0.128906V11.1294L0 5.50026Z" fill="#288BFF"/>
<path d="M2.18561e-08 38.0003L9 32.8041V43.1964L2.18561e-08 38.0003Z" fill="#288BFF"/>
<path d="M2.18561e-08 61.0003L9 55.8041V66.1964L2.18561e-08 61.0003Z" fill="#288BFF"/>
<path d="M0 82.5003L9 76.8711V88.1294L0 82.5003Z" fill="#288BFF"/>
</svg>
